<?xml version="1.0" encoding="iso-8859-1"?>
<!-- Generator: Adobe Illustrator 16.0.0, SVG Export Plug-In . SVG Version: 6.00 Build 0)  -->
<!DOCTYPE svg PUBLIC "-//W3C//DTD SVG 1.1//EN" "http://www.w3.org/Graphics/SVG/1.1/DTD/svg11.dtd">
<svg version="1.1" id="Capa_1" xmlns="http://www.w3.org/2000/svg" xmlns:xlink="http://www.w3.org/1999/xlink" x="0px" y="0px"
	 width="521.494px" height="521.494px" viewBox="0 0 521.494 521.494" style="enable-background:new 0 0 521.494 521.494;"
	 xml:space="preserve">
<g>
	<g id="iconos_65_">
		<path d="M204.911,102.261h47.812V9.562c0,0-47.812,26.564-47.812,64.011C204.911,90.624,204.911,98.694,204.911,102.261z"/>
		<path d="M388.692,109.672C388.692,28.152,329.224,0,310.099,0v111.824h-114.75v42.677l-61.353,301.372
			c0,0-12.756,57.576,45.125,65.062c53.885,6.973,63.839-53.617,63.839-53.617l33.583-249.877
			C276.544,217.441,388.692,175.481,388.692,109.672z M186.618,493.07c-15.539,0-28.133-12.594-28.133-28.133
			s12.594-28.133,28.133-28.133s28.133,12.594,28.133,28.133S202.157,493.07,186.618,493.07z M271.849,169.199h-57.375v-47.812
			h57.375V169.199z"/>
		<path d="M185.786,159.636v-37.59c0,0-32.073,8.903-32.073,37.59H185.786z"/>
		<rect x="224.036" y="130.949" width="38.25" height="28.688"/>
	</g>
</g>
<g>
</g>
<g>
</g>
<g>
</g>
<g>
</g>
<g>
</g>
<g>
</g>
<g>
</g>
<g>
</g>
<g>
</g>
<g>
</g>
<g>
</g>
<g>
</g>
<g>
</g>
<g>
</g>
<g>
</g>
</svg>
