<?xml version="1.0" encoding="iso-8859-1"?>
<!-- Generator: Adobe Illustrator 16.0.0, SVG Export Plug-In . SVG Version: 6.00 Build 0)  -->
<!DOCTYPE svg PUBLIC "-//W3C//DTD SVG 1.1//EN" "http://www.w3.org/Graphics/SVG/1.1/DTD/svg11.dtd">
<svg version="1.1" id="Capa_1" xmlns="http://www.w3.org/2000/svg" xmlns:xlink="http://www.w3.org/1999/xlink" x="0px" y="0px"
	 width="501.894px" height="501.894px" viewBox="0 0 501.894 501.894" style="enable-background:new 0 0 501.894 501.894;"
	 xml:space="preserve">
<g>
	<g id="iconos_14_">
		<path d="M117.876,1.09l-2.075,8.357c-29.194,117.523,20.951,181.448,23.103,184.107l4.628,5.747l117.791-49.276v50.232
			c0,0,26.287,45.125,26.287,129.553s-40.755,160.124-40.755,160.124s81.406,17.461,100.531,10.185V223.552l9.562-39.302v-50.375
			h38.25V40.574l-47.812-6.77V0h-66.938v24.327L200.42,12.996l0.076-0.344L117.876,1.09z M149.787,175.52
			c-10.318-17.05-35.639-69.749-17.385-153.086l42.984,6.005c-4.839,27.789-9.543,79.923,9.046,131.532L149.787,175.52z"/>
	</g>
</g>
<g>
</g>
<g>
</g>
<g>
</g>
<g>
</g>
<g>
</g>
<g>
</g>
<g>
</g>
<g>
</g>
<g>
</g>
<g>
</g>
<g>
</g>
<g>
</g>
<g>
</g>
<g>
</g>
<g>
</g>
</svg>
