<?xml version="1.0" encoding="iso-8859-1"?>
<!-- Generator: Adobe Illustrator 16.0.0, SVG Export Plug-In . SVG Version: 6.00 Build 0)  -->
<!DOCTYPE svg PUBLIC "-//W3C//DTD SVG 1.1//EN" "http://www.w3.org/Graphics/SVG/1.1/DTD/svg11.dtd">
<svg version="1.1" id="Capa_1" xmlns="http://www.w3.org/2000/svg" xmlns:xlink="http://www.w3.org/1999/xlink" x="0px" y="0px"
	 width="489.863px" height="489.863px" viewBox="0 0 489.863 489.863" style="enable-background:new 0 0 489.863 489.863;"
	 xml:space="preserve">
<g>
	<g id="iconos_21_">
		<polygon points="489.863,131.521 205.364,325.466 205.364,450.755 489.863,252.755 		"/>
		<polygon points="182.864,321.103 0.468,247.919 0,386.718 182.864,455.255 		"/>
		<path d="M195.333,300.407l286.875-195.926L294.43,34.608L6.464,222.254L195.333,300.407z M280.879,197.591l-75.056,51.371
			c-10.844,7.42-27.253,9.562-36.366,4.81l-15.998-8.349c-8.568-4.465-6.809-13.646,3.662-20.511l72.704-47.66
			c9.62-6.311,24.691-8.606,33.91-5.125l17.174,6.493C290.67,182.319,290.785,190.812,280.879,197.591z M377.891,96.257L396.029,101
			c10.299,2.697,11.811,9.696,3.117,15.654l-65.674,44.944c-9.457,6.474-25.342,8.855-35.201,5.317l-17.336-6.216
			c-9.305-3.337-9.182-10.93,0.027-16.964l64.078-42.008C353.535,96.152,368.137,93.705,377.891,96.257z M209.542,122.697
			l61.928-38.623c8.242-5.135,21.668-7.487,30.197-5.259l15.834,4.141c8.971,2.352,9.592,8.673,1.148,14.133l-63.543,41.109
			c-9.124,5.9-23.62,8.205-32.15,5.154l-15.032-5.384C199.856,135.062,200.668,128.234,209.542,122.697z M90.671,196.826
			l69.663-43.442c9.247-5.766,23.056-7.994,31.049-4.973l14.87,5.623c8.435,3.184,7.746,10.767-1.778,16.935L132.545,217.5
			c-10.356,6.703-25.274,8.817-33.077,4.743l-13.732-7.162C78.355,211.236,80.659,203.07,90.671,196.826z"/>
	</g>
</g>
<g>
</g>
<g>
</g>
<g>
</g>
<g>
</g>
<g>
</g>
<g>
</g>
<g>
</g>
<g>
</g>
<g>
</g>
<g>
</g>
<g>
</g>
<g>
</g>
<g>
</g>
<g>
</g>
<g>
</g>
</svg>
