<?xml version="1.0" encoding="iso-8859-1"?>
<!-- Generator: Adobe Illustrator 16.0.0, SVG Export Plug-In . SVG Version: 6.00 Build 0)  -->
<!DOCTYPE svg PUBLIC "-//W3C//DTD SVG 1.1//EN" "http://www.w3.org/Graphics/SVG/1.1/DTD/svg11.dtd">
<svg version="1.1" id="Capa_1" xmlns="http://www.w3.org/2000/svg" xmlns:xlink="http://www.w3.org/1999/xlink" x="0px" y="0px"
	 width="468.579px" height="468.579px" viewBox="0 0 468.579 468.579" style="enable-background:new 0 0 468.579 468.579;"
	 xml:space="preserve">
<g>
	<path d="M202.543,359.988l42.817-75.611l-18.252-17.572c-15.036,12.313-33.475,19.614-53.213,19.614
		c-18.624,0-36.073-6.435-50.614-17.511l-18.315,17.635H69.14c-16.521,0-29.452,5.631-39.538,17.325
		C0.15,337.899,5.1,411.098,7.451,433.496h236.671L202.543,359.988z M99.397,195.958c2.352,20.418,10.952,38.61,23.451,51.975
		c2.599,2.785,5.383,5.384,8.354,7.673c3.712,2.97,7.672,5.568,11.88,7.734c9.405,4.888,19.862,7.673,30.875,7.673
		s21.409-2.785,30.875-7.673c4.208-2.166,8.167-4.765,11.88-7.734c2.97-2.352,5.754-4.95,8.353-7.734
		c12.437-13.303,20.975-31.309,23.388-51.604c0.248,0,0.495,0.062,0.681,0.062c12.994,0,23.575-12.127,23.575-27.101
		c0-9.034-3.898-17.016-9.839-21.904H89.002c-5.94,4.95-9.838,12.87-9.838,21.904C79.102,182.902,87.95,194.102,99.397,195.958z
		 M404.255,355.843c0.928-0.124,1.794-0.433,2.475-0.866c0.743-0.433,1.3-1.052,1.732-1.856c0.434-0.804,0.681-1.856,0.681-3.094
		s-0.247-2.351-0.681-3.094c-0.433-0.804-0.989-1.423-1.732-1.855c-0.742-0.434-1.547-0.743-2.475-0.867
		c-0.928-0.123-1.918-0.247-2.97-0.247h-6.931v12.065h6.931C402.337,356.091,403.328,356.028,404.255,355.843z M368.121,347.861
		c-0.866-1.3-1.98-2.352-3.403-3.094c-1.361-0.743-3.094-1.176-5.074-1.176c-1.979,0-3.712,0.371-5.073,1.176
		c-1.361,0.804-2.537,1.794-3.403,3.094c-0.866,1.299-1.485,2.784-1.856,4.455c-0.371,1.67-0.618,3.402-0.618,5.135
		c0,1.671,0.186,3.342,0.618,4.95c0.371,1.609,1.052,3.032,1.856,4.331c0.866,1.3,1.98,2.29,3.403,3.094
		c1.361,0.743,3.094,1.176,5.073,1.176c1.98,0,3.713-0.371,5.074-1.176c1.361-0.742,2.537-1.794,3.403-3.094
		c0.866-1.299,1.484-2.722,1.918-4.331c0.371-1.608,0.618-3.217,0.618-4.95c0-1.794-0.186-3.465-0.618-5.135
		C369.667,350.646,368.987,349.16,368.121,347.861z M295.789,276.396l-47.087,82.912l47.087,82.913h94.235l46.716-82.913
		l-46.716-82.912H295.789z M300.739,370.631c-0.743,1.609-1.795,2.971-3.218,4.084c-1.423,1.176-3.155,2.042-5.26,2.66
		c-2.104,0.619-4.517,0.99-7.239,0.99c-2.228,0-4.393-0.31-6.497-0.805c-2.104-0.557-3.96-1.423-5.507-2.599
		c-1.608-1.175-2.908-2.66-3.836-4.455c-0.928-1.794-1.361-3.96-1.361-6.435h8.601c0,1.361,0.248,2.537,0.743,3.465
		c0.494,0.929,1.113,1.732,1.918,2.289c0.804,0.619,1.794,1.053,2.846,1.3s2.228,0.434,3.403,0.434c0.805,0,1.671-0.062,2.537-0.187
		c0.928-0.123,1.732-0.371,2.537-0.742c0.804-0.371,1.423-0.928,1.979-1.547c0.557-0.681,0.805-1.484,0.805-2.537
		c0-1.113-0.371-1.979-1.052-2.66s-1.609-1.237-2.723-1.671c-1.114-0.433-2.413-0.866-3.837-1.176
		c-1.423-0.309-2.908-0.742-4.331-1.113c-1.484-0.371-2.97-0.805-4.393-1.361c-1.424-0.557-2.723-1.237-3.837-2.104
		c-1.113-0.866-2.041-1.918-2.723-3.218c-0.68-1.3-1.052-2.847-1.052-4.702c0-2.042,0.434-3.837,1.3-5.384s2.042-2.784,3.465-3.836
		c1.423-0.99,3.032-1.794,4.826-2.228c1.795-0.495,3.589-0.742,5.445-0.742c2.104,0,4.146,0.247,6.063,0.681
		c1.918,0.495,3.65,1.237,5.197,2.289c1.485,1.052,2.723,2.413,3.589,4.021c0.866,1.671,1.361,3.651,1.361,5.94h-8.601
		c-0.062-1.176-0.31-2.228-0.742-2.97c-0.434-0.805-0.99-1.424-1.732-1.856c-0.743-0.434-1.547-0.742-2.476-0.99
		c-0.928-0.186-1.918-0.247-3.031-0.247c-0.743,0-1.424,0.062-2.166,0.247c-0.742,0.124-1.361,0.434-1.918,0.805
		c-0.619,0.371-1.052,0.866-1.423,1.423c-0.372,0.557-0.558,1.3-0.558,2.166c0,0.804,0.124,1.423,0.434,1.918
		s0.928,0.928,1.794,1.361c0.866,0.433,2.104,0.804,3.651,1.237c1.547,0.433,3.588,0.928,6.125,1.608
		c0.743,0.124,1.795,0.434,3.156,0.805s2.66,1.052,3.96,1.918c1.299,0.866,2.475,2.042,3.403,3.465
		c0.989,1.485,1.423,3.342,1.423,5.569C301.791,367.29,301.419,369.022,300.739,370.631z M336.935,344.52H324.87v32.918h-8.848
		V344.52h-12.066v-7.486h33.104L336.935,344.52L336.935,344.52z M378.144,365.681c-0.928,2.537-2.228,4.765-3.898,6.621
		c-1.67,1.856-3.774,3.341-6.188,4.455c-2.475,1.052-5.259,1.608-8.353,1.608s-5.878-0.557-8.354-1.608
		c-2.475-1.052-4.578-2.537-6.249-4.455s-2.97-4.084-3.898-6.621c-0.928-2.536-1.361-5.259-1.361-8.229
		c0-3.032,0.434-5.816,1.361-8.415c0.929-2.6,2.228-4.826,3.898-6.745c1.671-1.918,3.774-3.402,6.249-4.517
		c2.476-1.113,5.26-1.671,8.354-1.671s5.939,0.558,8.353,1.671c2.476,1.114,4.518,2.599,6.188,4.517
		c1.671,1.919,2.971,4.208,3.898,6.745c0.928,2.599,1.361,5.383,1.361,8.415C379.505,360.359,379.072,363.145,378.144,365.681z
		 M410.196,338.209c1.794,0.742,3.217,1.732,4.331,2.908c1.113,1.237,1.918,2.599,2.413,4.146s0.742,3.155,0.742,4.826
		c0,1.608-0.247,3.217-0.742,4.764s-1.3,2.971-2.413,4.146c-1.114,1.175-2.537,2.165-4.331,2.907
		c-1.795,0.743-3.898,1.114-6.436,1.114h-9.343v14.479h-8.849v-40.343h18.191C406.297,337.095,408.401,337.466,410.196,338.209z
		 M460.375,354.481l-54.944-99.989l-2.599-4.518h-5.384H286.383H281l-2.599,4.455L222.9,354.544l-2.475,4.393l2.475,4.517
		l55.563,100.238l2.599,4.888h5.384h111.127h5.383l2.6-4.888l54.944-100.3l2.476-4.455L460.375,354.481z M397.511,459.483H286.383
		L230.82,359.308l55.563-100.176H396.15h0.681l55.254,100.176L397.511,459.483z M141.225,30.69
		c-25.74,13.118-46.035,39.353-53.708,64.845l-1.732,5.445H71.677v30.938h15.345h21.78h9.157h119.295h8.91h33.907v-1.485V100.98
		h-13.859l-1.732-5.445c-7.673-25.492-27.968-51.48-53.708-64.597V89.1v8.168c0,0.495,0,0.742,0,0.99
		c-0.247,2.723-0.742,5.198-1.979,7.672c-3.218,6.188-9.653,10.643-17.078,10.643h-3.96H160.53c-6.93,0-13.118-3.712-16.335-9.157
		c-1.485-2.228-2.228-4.703-2.723-7.425c-0.248-0.99-0.248-1.732-0.248-2.722v-6.93V30.69L141.225,30.69z M160.53,108.405h30.938
		c4.455,0,8.167-2.475,10.147-6.188c0.99-1.732,1.485-3.465,1.485-5.445v-2.228v-9.158v-58.41v-8.415v-3.218
		c0-1.98-0.495-3.712-0.99-5.445c-2.228-5.692-7.92-9.9-14.355-9.9H160.53c-5.94,0-10.89,4.455-11.385,10.147
		c0,0.495-0.248,0.99-0.248,1.485v6.93v8.415v59.4v9.405v0.99c0,2.475,0.743,4.702,1.98,6.683
		C153.104,106.425,156.57,108.405,160.53,108.405z"/>
</g>
<g>
</g>
<g>
</g>
<g>
</g>
<g>
</g>
<g>
</g>
<g>
</g>
<g>
</g>
<g>
</g>
<g>
</g>
<g>
</g>
<g>
</g>
<g>
</g>
<g>
</g>
<g>
</g>
<g>
</g>
</svg>
