<?xml version="1.0" encoding="iso-8859-1"?>
<!-- Generator: Adobe Illustrator 16.0.0, SVG Export Plug-In . SVG Version: 6.00 Build 0)  -->
<!DOCTYPE svg PUBLIC "-//W3C//DTD SVG 1.1//EN" "http://www.w3.org/Graphics/SVG/1.1/DTD/svg11.dtd">
<svg version="1.1" id="Capa_1" xmlns="http://www.w3.org/2000/svg" xmlns:xlink="http://www.w3.org/1999/xlink" x="0px" y="0px"
	 width="600.84px" height="600.839px" viewBox="0 0 600.84 600.839" style="enable-background:new 0 0 600.84 600.839;"
	 xml:space="preserve">
<g>
	<g id="iconos_40_">
		<path d="M404.445,235.998h-42.668v-38.25h-47.812v9.562v28.688H294.84v9.562v10.958l19.326-7.373
			c3.348-1.673,31.127-11.657,42.037,8.97c12.594,23.801-2.803,38.355-9.764,41.836l-23.312,12.546h38.65v19.125h172.125h9.562
			v-19.125h47.812h9.562V130.81H482.084L404.445,235.998z M562.59,235.998h-89.754l39.217-57.375h50.537V235.998z"/>
		<path d="M567.371,350.748H318.746c-28.391,0-43.031,13.445-43.031,33.469v49.906c0,20.914,14.047,31.375,43.031,31.375h248.625
			c21.123,0,33.469-14.047,33.469-40.641v-40.641C600.84,363.092,588.494,350.748,567.371,350.748z M562.59,427.248H313.965v-38.25
			H562.59V427.248z"/>
		<path d="M227.702,358.321c-3.347,1.674-27.932,14.937-40.44-13.148c-9.763-21.917,5.011-38.001,16.801-43.892l47.095-25.321
			c-7.239-10.089-5.785-10.117-6.072-10.328l-1.262-0.947H192.78l-79.627,147.004v1.215v47.812v3.48l3.318,1.062
			c0.602,0.201,15.022,4.771,35.41,4.771c33.048,0,78.479-11.819,107.177-68.104c12.173-23.868,18.102-46.771,17.614-68.066
			L227.702,358.321z"/>
		<polygon points="74.903,446.373 74.903,465.498 103.59,465.498 103.59,417.685 		"/>
		<path d="M208.338,319.392c-7.076,3.538-9.955,12.163-6.417,19.249c3.443,6.895,12.336,9.888,19.25,6.417l114.454-58.57
			c2.734-1.368,5.135-3.51,6.875-6.015c2.496-3.978,3.203-8.893,1.043-13.234c-1.225-2.448-2.928-4.427-4.992-5.804
			c-2.324-1.349-5.021-2.085-7.707-2.114c-0.221,0.01-0.479,0.02-0.727,0.039c-0.775,0.028-1.637,0.115-2.535,0.249
			c-0.373,0.048-0.707,0.105-1.08,0.172c-1.244,0.249-2.477,0.583-3.395,1.042L208.338,319.392z"/>
		<polygon points="55.778,441.591 92.431,402.547 150.408,296.958 140.243,264.685 122.715,264.685 92.039,316.083 82.868,302.935 
			72.11,302.935 57.375,342.38 44.618,331.623 32.273,331.623 12.747,357.518 7.563,395.175 0,465.498 55.778,465.498 		"/>
	</g>
</g>
<g>
</g>
<g>
</g>
<g>
</g>
<g>
</g>
<g>
</g>
<g>
</g>
<g>
</g>
<g>
</g>
<g>
</g>
<g>
</g>
<g>
</g>
<g>
</g>
<g>
</g>
<g>
</g>
<g>
</g>
</svg>
