<?xml version="1.0" encoding="iso-8859-1"?>
<!-- Generator: Adobe Illustrator 16.0.0, SVG Export Plug-In . SVG Version: 6.00 Build 0)  -->
<!DOCTYPE svg PUBLIC "-//W3C//DTD SVG 1.1//EN" "http://www.w3.org/Graphics/SVG/1.1/DTD/svg11.dtd">
<svg version="1.1" id="Capa_1" xmlns="http://www.w3.org/2000/svg" xmlns:xlink="http://www.w3.org/1999/xlink" x="0px" y="0px"
	 width="525.938px" height="525.937px" viewBox="0 0 525.938 525.937" style="enable-background:new 0 0 525.938 525.937;"
	 xml:space="preserve">
<g>
	<g id="iconos_38_">
		<path d="M329.543,198.546h-42.668v-38.25h-47.812v9.562v28.688h-19.125v9.562v10.958l19.326-7.373
			c3.347-1.673,31.126-11.657,42.037,8.97c12.594,23.801-2.802,38.355-9.763,41.836l-23.313,12.546h38.651v19.125H459h9.562v-19.125
			h47.812h9.562V93.359H407.181L329.543,198.546z M487.688,198.546h-89.754l39.216-57.375h50.538V198.546z"/>
		<path d="M492.469,313.296H243.844c-28.391,0-43.031,13.445-43.031,33.469v49.906c0,20.914,14.047,31.375,43.031,31.375h248.625
			c21.123,0,33.469-14.047,33.469-40.641v-40.641C525.938,325.641,513.592,313.296,492.469,313.296z M487.688,389.796H239.062
			v-38.25h248.625V389.796z"/>
		<path d="M152.799,320.87c-3.347,1.674-27.932,14.937-40.44-13.148c-9.763-21.917,5.011-38.001,16.801-43.892l47.095-25.321
			c-7.239-10.089-5.785-10.117-6.072-10.328l-1.262-0.947h-51.044L38.25,374.238v1.215v47.812v3.48l3.318,1.062
			c0.602,0.201,15.022,4.771,35.41,4.771c33.048,0,78.479-11.819,107.177-68.104c12.173-23.868,18.102-46.771,17.614-68.066
			L152.799,320.87z"/>
		<polygon points="0,408.921 0,428.046 28.688,428.046 28.688,380.234 		"/>
		<path d="M133.435,281.941c-7.076,3.538-9.955,12.163-6.417,19.249c3.443,6.895,12.336,9.888,19.25,6.417l114.454-58.57
			c2.734-1.368,5.135-3.51,6.875-6.015c2.496-3.978,3.204-8.893,1.043-13.234c-1.225-2.448-2.927-4.427-4.992-5.804
			c-2.323-1.349-5.021-2.085-7.707-2.114c-0.22,0.01-0.479,0.02-0.727,0.039c-0.774,0.028-1.636,0.115-2.534,0.249
			c-0.373,0.048-0.708,0.105-1.081,0.172c-1.243,0.249-2.477,0.583-3.395,1.042L133.435,281.941z"/>
	</g>
</g>
<g>
</g>
<g>
</g>
<g>
</g>
<g>
</g>
<g>
</g>
<g>
</g>
<g>
</g>
<g>
</g>
<g>
</g>
<g>
</g>
<g>
</g>
<g>
</g>
<g>
</g>
<g>
</g>
<g>
</g>
</svg>
