<?xml version="1.0" encoding="iso-8859-1"?>
<!-- Generator: Adobe Illustrator 16.0.0, SVG Export Plug-In . SVG Version: 6.00 Build 0)  -->
<!DOCTYPE svg PUBLIC "-//W3C//DTD SVG 1.1//EN" "http://www.w3.org/Graphics/SVG/1.1/DTD/svg11.dtd">
<svg version="1.1" id="Capa_1" xmlns="http://www.w3.org/2000/svg" xmlns:xlink="http://www.w3.org/1999/xlink" x="0px" y="0px"
	 width="545.062px" height="545.062px" viewBox="0 0 545.062 545.062" style="enable-background:new 0 0 545.062 545.062;"
	 xml:space="preserve">
<g>
	<g id="iconos_1_">
		<path d="M540.281,516.375h-28.688v-28.688h28.688V459H380.578l-85.604-74.482c0.631-1.319,1.214-2.678,1.75-4.093
			c6.177-16.285,5.642-30.753,18.102-31.595c14.076-0.946,13.406-21.43-6.779-20.836c-7.497,0.22-16.123,3.136-25.58,17.136
			c-3.48,5.145-6.426,12.699-11.274,18.694l-9.725-8.463c-3.595-3.127-8.96-3.127-12.546,0l-13.464,11.714
			c-7.401-6.847-10.614-18.627-10.614-31.546c0-14.631,8.071-32.188,22.691-32.188c14.621,0,24.997,2.936,24.997,2.936v-67.215
			h-9.562V0h-19.125v239.062h-9.562v44.293c-28.688,1.789-38.996,23.897-38.996,55.597c0,18.293,3.414,37.352,14.765,50.232
			L129.82,459H4.781v28.688h19.125v28.688H4.781v28.688h535.5V516.375z M226.163,400.516c6.493,2.658,14.181,4.227,23.447,4.227
			c15.358,0,25.456-2.257,32.456-6.11L351.45,459H158.948L226.163,400.516z"/>
	</g>
</g>
<g>
</g>
<g>
</g>
<g>
</g>
<g>
</g>
<g>
</g>
<g>
</g>
<g>
</g>
<g>
</g>
<g>
</g>
<g>
</g>
<g>
</g>
<g>
</g>
<g>
</g>
<g>
</g>
<g>
</g>
</svg>
