<?xml version="1.0" encoding="iso-8859-1"?>
<!-- Generator: Adobe Illustrator 16.0.0, SVG Export Plug-In . SVG Version: 6.00 Build 0)  -->
<!DOCTYPE svg PUBLIC "-//W3C//DTD SVG 1.1//EN" "http://www.w3.org/Graphics/SVG/1.1/DTD/svg11.dtd">
<svg version="1.1" id="Capa_1" xmlns="http://www.w3.org/2000/svg" xmlns:xlink="http://www.w3.org/1999/xlink" x="0px" y="0px"
	 width="475.668px" height="475.668px" viewBox="0 0 475.668 475.668" style="enable-background:new 0 0 475.668 475.668;"
	 xml:space="preserve">
<g>
	<g id="iconos_25_">
		<path d="M14.344,445.642h446.79c0.066,0,0.124,0,0.191,0c7.927,0,14.344-6.416,14.344-14.344c0-3.395-1.187-6.521-3.156-8.971
			L250.156,37.198c-2.562-4.437-7.297-7.172-12.422-7.172s-9.859,2.735-12.422,7.172L1.922,424.126
			c-2.563,4.438-2.563,9.906,0,14.344C4.475,442.907,9.218,445.642,14.344,445.642z M237.733,73.058L436.28,416.954H39.187
			L237.733,73.058z"/>
		<polygon points="202.668,187.454 216.218,321.329 264.031,321.329 277.179,187.454 		"/>
		<rect x="216.218" y="340.454" width="47.813" height="47.812"/>
	</g>
</g>
<g>
</g>
<g>
</g>
<g>
</g>
<g>
</g>
<g>
</g>
<g>
</g>
<g>
</g>
<g>
</g>
<g>
</g>
<g>
</g>
<g>
</g>
<g>
</g>
<g>
</g>
<g>
</g>
<g>
</g>
</svg>
