<?xml version="1.0" encoding="iso-8859-1"?>
<!-- Generator: Adobe Illustrator 16.0.0, SVG Export Plug-In . SVG Version: 6.00 Build 0)  -->
<!DOCTYPE svg PUBLIC "-//W3C//DTD SVG 1.1//EN" "http://www.w3.org/Graphics/SVG/1.1/DTD/svg11.dtd">
<svg version="1.1" id="Capa_1" xmlns="http://www.w3.org/2000/svg" xmlns:xlink="http://www.w3.org/1999/xlink" x="0px" y="0px"
	 width="649.508px" height="649.508px" viewBox="0 0 649.508 649.508" style="enable-background:new 0 0 649.508 649.508;"
	 xml:space="preserve">
<g>
	<g id="iconos_31_">
		<path d="M323.12,647.212V594h-74.25h-37.88c-9.851,24.849-17.956,40.033-17.956,40.033S298.37,656.63,323.12,647.212z"/>
		<path d="M211.745,194.151v65.006c0,0,7.474,12.981,15.407,37.843h21.718h64.969h9.281v-7.697l12.375-50.861V173.25h49.5V52.507
			l-61.875-8.761V0h-86.625v31.482L132.929,16.818l0.1-0.446L26.108,1.423l-2.686,10.803
			c-37.781,152.089,27.114,234.816,29.898,238.256l5.99,7.437L211.745,194.151z M67.403,227.143
			C54.05,205.078,21.281,136.88,44.905,29.032l55.626,7.771c-6.262,35.962-12.351,103.43,11.707,170.218L67.403,227.143z"/>
	</g>
	<path d="M428.782,361.495l-32.472-47.874H140.89v49.022h88.309v22.215h-0.792H140.89v47.49h87.12h0.792v23.746H140.89v49.023
		c4.356,0,88.309-0.383,88.309-0.383v23.745h-0.792H140.89v48.641h255.816l34.848-46.725H637.87v-168.9
		C637.87,361.495,428.782,361.495,428.782,361.495z"/>
</g>
<g>
</g>
<g>
</g>
<g>
</g>
<g>
</g>
<g>
</g>
<g>
</g>
<g>
</g>
<g>
</g>
<g>
</g>
<g>
</g>
<g>
</g>
<g>
</g>
<g>
</g>
<g>
</g>
<g>
</g>
</svg>
