<?xml version="1.0" encoding="iso-8859-1"?>
<!-- Generator: Adobe Illustrator 16.0.0, SVG Export Plug-In . SVG Version: 6.00 Build 0)  -->
<!DOCTYPE svg PUBLIC "-//W3C//DTD SVG 1.1//EN" "http://www.w3.org/Graphics/SVG/1.1/DTD/svg11.dtd">
<svg version="1.1" id="Capa_1" xmlns="http://www.w3.org/2000/svg" xmlns:xlink="http://www.w3.org/1999/xlink" x="0px" y="0px"
	 width="389.812px" height="389.812px" viewBox="0 0 389.812 389.812" style="enable-background:new 0 0 389.812 389.812;"
	 xml:space="preserve">
<g>
	<g id="iconos_16_">
		<polygon points="129.651,371.25 117.276,371.25 117.276,389.812 179.151,389.812 179.151,371.25 168.323,371.25 		"/>
		<polygon points="162.136,222.75 178.385,222.75 166.294,185.625 133.438,185.625 118.594,222.75 129.651,222.75 		"/>
		<polygon points="160.589,173.25 160.589,76.181 170.384,40.219 159.426,0 137.516,0 126.558,40.219 135.839,74.287 
			135.839,173.25 		"/>
	</g>
	<path d="M214.607,254.997l-16.236-23.937H70.661v24.512h44.154v11.106h-0.396H70.661v23.746h43.56h0.396v11.873H70.661v24.511
		c2.178,0,44.154-0.191,44.154-0.191v11.873h-0.396H70.661v24.32h127.908l17.424-23.362h103.158v-84.45
		C319.151,254.997,214.607,254.997,214.607,254.997z"/>
</g>
<g>
</g>
<g>
</g>
<g>
</g>
<g>
</g>
<g>
</g>
<g>
</g>
<g>
</g>
<g>
</g>
<g>
</g>
<g>
</g>
<g>
</g>
<g>
</g>
<g>
</g>
<g>
</g>
<g>
</g>
</svg>
