<?xml version="1.0" encoding="iso-8859-1"?>
<!-- Generator: Adobe Illustrator 16.0.0, SVG Export Plug-In . SVG Version: 6.00 Build 0)  -->
<!DOCTYPE svg PUBLIC "-//W3C//DTD SVG 1.1//EN" "http://www.w3.org/Graphics/SVG/1.1/DTD/svg11.dtd">
<svg version="1.1" id="Capa_1" xmlns="http://www.w3.org/2000/svg" xmlns:xlink="http://www.w3.org/1999/xlink" x="0px" y="0px"
	 width="451.068px" height="451.068px" viewBox="0 0 451.068 451.068" style="enable-background:new 0 0 451.068 451.068;"
	 xml:space="preserve">
<g>
	<path d="M48.262,34.774c0.186-7.734,1.609-10.395,1.856-11.633H23.945v7.796v15.469c0,0,23.203,0,23.265,0h1.918
		C47.767,40.775,48.077,34.774,48.262,34.774z M178.633,232.031H155.43V247.5h15.469v30.938h32.855h13.551V247.5h7.734h7.734
		v-15.469h-30.938H198h-3.836H178.633 M62.617,36.259c0,22.708,5.754,41.395,8.848,48.819h236.61
		c2.166-8.353,5.816-28.339,5.816-43.622c0-15.716-4.331-35.64-5.816-41.456H71.465C69.3,5.259,62.617,19.181,62.617,36.259z
		 M364.196,44.179c0.062-0.31,1.547-8.539-3.466-14.603c-3.402-4.083-8.724-6.311-15.84-6.311h-19.305c0,0,1.361,10.642,0,23.203
		c6.621-0.186,15.469,0,15.469,0v61.875H198c-6.125,0-10.952,1.856-14.417,5.507c-5.383,5.754-4.95,13.736-4.95,13.86v96.649h7.734
		h7.734h3.836h3.836v-92.812c28.462,0,127.153,0,143.055,0c1.052,0,9.405,0.248,14.912-4.765c5.692-5.259,4.455-14.107,4.455-14.107
		V44.179z M297.742,317.666l-20.109-29.638H119.666v30.318h54.636v13.736h-0.495h-54.141v29.391h53.893h0.495V376.2h-54.388v30.318
		c2.723,0,54.636-0.247,54.636-0.247v14.664h-0.495h-54.141v30.133h158.276l21.532-28.896h127.648V317.666H297.742z"/>
</g>
<g>
</g>
<g>
</g>
<g>
</g>
<g>
</g>
<g>
</g>
<g>
</g>
<g>
</g>
<g>
</g>
<g>
</g>
<g>
</g>
<g>
</g>
<g>
</g>
<g>
</g>
<g>
</g>
<g>
</g>
</svg>
