<?xml version="1.0" encoding="iso-8859-1"?>
<!-- Generator: Adobe Illustrator 16.0.0, SVG Export Plug-In . SVG Version: 6.00 Build 0)  -->
<!DOCTYPE svg PUBLIC "-//W3C//DTD SVG 1.1//EN" "http://www.w3.org/Graphics/SVG/1.1/DTD/svg11.dtd">
<svg version="1.1" id="Capa_1" xmlns="http://www.w3.org/2000/svg" xmlns:xlink="http://www.w3.org/1999/xlink" x="0px" y="0px"
	 width="754.875px" height="754.875px" viewBox="0 0 754.875 754.875" style="enable-background:new 0 0 754.875 754.875;"
	 xml:space="preserve">
<g>
	<g id="iconos_54_">
		<polygon points="525.214,278.846 504.362,198 438.651,198 413.839,276.965 413.839,309.375 525.214,309.375 		"/>
		<path d="M636.589,0h-74.25v24.75h-49.5V0c0,0-10.185,0-87.528,0c-77.343,0-139.256,59.066-153.76,77.789
			c-15.073,19.478,0.062,45.862,17.659,34.551s44.76-29.527,78.049-29.527c20.977,0,58.942,6.126,58.942,29.712v48.349h86.625
			V86.625h49.5v24.75h74.25V0H636.589z"/>
		<rect x="413.839" y="631.125" width="111.375" height="123.75"/>
	</g>
	<path d="M118.286,386.374v168.9h206.315l34.849,46.725h255.815v-48.64H527.75h-0.792v-23.746c0,0,83.952,0.383,88.308,0.383
		v-49.023h-87.912v-23.746h0.792h87.12v-47.49H527.75h-0.792v-22.215h88.308v-49.022h-255.42l-32.472,47.874
		C327.375,386.374,118.287,386.374,118.286,386.374z"/>
</g>
<g>
</g>
<g>
</g>
<g>
</g>
<g>
</g>
<g>
</g>
<g>
</g>
<g>
</g>
<g>
</g>
<g>
</g>
<g>
</g>
<g>
</g>
<g>
</g>
<g>
</g>
<g>
</g>
<g>
</g>
</svg>
