<?xml version="1.0" encoding="iso-8859-1"?>
<!-- Generator: Adobe Illustrator 16.0.0, SVG Export Plug-In . SVG Version: 6.00 Build 0)  -->
<!DOCTYPE svg PUBLIC "-//W3C//DTD SVG 1.1//EN" "http://www.w3.org/Graphics/SVG/1.1/DTD/svg11.dtd">
<svg version="1.1" id="Capa_1" xmlns="http://www.w3.org/2000/svg" xmlns:xlink="http://www.w3.org/1999/xlink" x="0px" y="0px"
	 width="512.014px" height="512.014px" viewBox="0 0 512.014 512.014" style="enable-background:new 0 0 512.014 512.014;"
	 xml:space="preserve">
<g>
	<g id="iconos_47_">
		<path d="M73.02,260.788c0,103.256,84.006,187.263,187.262,187.263c103.256,0,187.264-84.007,187.264-187.263
			S363.537,73.525,260.281,73.525C157.026,73.525,73.02,157.532,73.02,260.788z M379.812,260.788
			c0,66.02-53.512,119.531-119.531,119.531c-66.019,0-119.531-53.512-119.531-119.531s53.512-119.531,119.531-119.531
			C326.301,141.257,379.812,194.769,379.812,260.788z"/>
		<path d="M128.004,31.288L0,256.007l128.004,224.719h256.008l128.002-224.719L384.012,31.288H128.004z M457.107,260.788
			c0,108.534-88.291,196.825-196.826,196.825c-108.534,0-196.824-88.291-196.824-196.825S151.748,63.963,260.281,63.963
			C368.816,63.963,457.107,152.254,457.107,260.788z"/>
	</g>
</g>
<g>
</g>
<g>
</g>
<g>
</g>
<g>
</g>
<g>
</g>
<g>
</g>
<g>
</g>
<g>
</g>
<g>
</g>
<g>
</g>
<g>
</g>
<g>
</g>
<g>
</g>
<g>
</g>
<g>
</g>
</svg>
