<?xml version="1.0" encoding="iso-8859-1"?>
<!-- Generator: Adobe Illustrator 16.0.0, SVG Export Plug-In . SVG Version: 6.00 Build 0)  -->
<!DOCTYPE svg PUBLIC "-//W3C//DTD SVG 1.1//EN" "http://www.w3.org/Graphics/SVG/1.1/DTD/svg11.dtd">
<svg version="1.1" id="Capa_1" xmlns="http://www.w3.org/2000/svg" xmlns:xlink="http://www.w3.org/1999/xlink" x="0px" y="0px"
	 width="449.82px" height="449.82px" viewBox="0 0 449.82 449.82" style="enable-background:new 0 0 449.82 449.82;"
	 xml:space="preserve">
<g>
	<g id="iconos_36_">
		<path d="M45.594,87.669h86.904l34.884,134.028h21.42v47.736h67.015v-47.736h18.971l29.07-134.028h85.68
			c10.711,0,18.973-8.568,18.973-18.972s-8.568-18.972-18.973-18.972h-86.291c-7.957-14.382-28.764-32.13-82.008-32.13
			c-53.856,0-77.112,18.054-86.904,32.13h-88.74c-10.71,0-18.972,8.568-18.972,18.972S34.884,87.669,45.594,87.669z"/>
		<polygon points="198.9,432.226 245.719,432.226 268.975,389.079 245.719,345.933 246.33,345.933 246.33,279.226 198.594,279.226 
			198.594,345.933 198.9,345.933 175.338,389.079 		"/>
		<polygon points="336.6,279.226 284.58,404.991 396.576,299.728 		"/>
		<polygon points="347.004,408.663 449.82,384.183 420.75,350.829 		"/>
		<polygon points="39.78,299.728 150.552,404.991 100.98,279.226 		"/>
		<polygon points="29.07,350.829 0,384.183 102.816,408.663 		"/>
	</g>
</g>
<g>
</g>
<g>
</g>
<g>
</g>
<g>
</g>
<g>
</g>
<g>
</g>
<g>
</g>
<g>
</g>
<g>
</g>
<g>
</g>
<g>
</g>
<g>
</g>
<g>
</g>
<g>
</g>
<g>
</g>
</svg>
