<?xml version="1.0" encoding="iso-8859-1"?>
<!-- Generator: Adobe Illustrator 16.0.0, SVG Export Plug-In . SVG Version: 6.00 Build 0)  -->
<!DOCTYPE svg PUBLIC "-//W3C//DTD SVG 1.1//EN" "http://www.w3.org/Graphics/SVG/1.1/DTD/svg11.dtd">
<svg version="1.1" id="Capa_1" xmlns="http://www.w3.org/2000/svg" xmlns:xlink="http://www.w3.org/1999/xlink" x="0px" y="0px"
	 width="494.869px" height="494.869px" viewBox="0 0 494.869 494.869" style="enable-background:new 0 0 494.869 494.869;"
	 xml:space="preserve">
<g>
	<g id="iconos_12_">
		<path d="M110.304,457.212c0,20.798,61.391,37.657,137.126,37.657c75.735,0,137.126-16.859,137.126-37.657
			c0-5.823-4.963-11.322-13.568-16.247l29.203-197.149c-42.371,17.193-107.387,22.749-152.761,22.749
			c-45.842,0-111.709-5.689-154.042-23.304l29.385,198.326C114.846,446.349,110.304,451.627,110.304,457.212z"/>
		<path d="M433.306,189.462c0-12.661-10.395-23.304-27.607-31.891c-0.707-3.605-1.529-7.468-2.505-11.609
			C390.532,92.661,353.239,0,246.837,0C144.289,0,107.062,89.132,93.799,145.054c-0.957,4.025-1.769,7.832-2.486,11.465
			c-18.513,8.759-29.749,19.756-29.749,32.943c0,13.292,11.427,24.355,30.189,33.144c34.989,16.381,95.567,24.824,155.677,24.824
			c59.402,0,119.235-8.253,154.406-24.25C421.353,214.295,433.306,203.041,433.306,189.462z M376.208,204.398
			c-20.349,10.5-70.274,17.93-128.778,17.93c-58.503,0-108.429-7.43-128.778-17.93c-6.282-3.242-9.839-6.761-9.839-10.461
			c0-15.683,62.061-28.391,138.608-28.391c76.558,0,138.608,12.708,138.608,28.391C386.048,197.638,382.49,201.157,376.208,204.398z
			 M247.43,131.484c-54.621,0-109.625,6.961-145.474,20.531c0.774-3.519,1.635-7.182,2.62-10.987
			C118.384,87.669,154.377,9.562,246.827,9.562c58.389,0,101.841,28.965,129.151,86.091c7.659,16.027,12.909,32.149,16.495,46.12
			c1.004,3.902,1.846,7.583,2.602,11.102C359.312,138.752,303.188,131.484,247.43,131.484z"/>
	</g>
</g>
<g>
</g>
<g>
</g>
<g>
</g>
<g>
</g>
<g>
</g>
<g>
</g>
<g>
</g>
<g>
</g>
<g>
</g>
<g>
</g>
<g>
</g>
<g>
</g>
<g>
</g>
<g>
</g>
<g>
</g>
</svg>
