<?xml version="1.0" encoding="iso-8859-1"?>
<!-- Generator: Adobe Illustrator 16.0.0, SVG Export Plug-In . SVG Version: 6.00 Build 0)  -->
<!DOCTYPE svg PUBLIC "-//W3C//DTD SVG 1.1//EN" "http://www.w3.org/Graphics/SVG/1.1/DTD/svg11.dtd">
<svg version="1.1" id="Capa_1" xmlns="http://www.w3.org/2000/svg" xmlns:xlink="http://www.w3.org/1999/xlink" x="0px" y="0px"
	 width="494.859px" height="494.859px" viewBox="0 0 494.859 494.859" style="enable-background:new 0 0 494.859 494.859;"
	 xml:space="preserve">
<g>
	<g id="iconos_22_">
		<path d="M328.113,261.143v48.443c0,5.278-4.284,9.562-9.562,9.562s-9.562-4.284-9.562-9.562v38.25
			c0,5.278-4.284,9.562-9.562,9.562s-9.562-4.284-9.562-9.562v-47.812c0,5.278-4.284,9.562-9.562,9.562s-9.562-4.284-9.562-9.562
			v-33.985c-8.118,0.315-16.026,0.517-23.313,0.517c-15.921,0-34.262-0.708-53.187-2.343v83.624c0,5.278-4.284,9.562-9.562,9.562
			s-9.562-4.284-9.562-9.562v-47.812c0,5.278-4.284,9.562-9.562,9.562s-9.562-4.284-9.562-9.562v28.688
			c0,5.278-4.284,9.562-9.562,9.562s-9.562-4.284-9.562-9.562v-72.637c-15.826-3.309-30.724-7.517-43.471-12.823l29.386,198.326
			c-7.937,4.762-12.47,10.041-12.47,15.625c0,20.799,61.391,37.657,137.126,37.657s137.126-16.858,137.126-37.657
			c0-5.823-4.963-11.322-13.569-16.247l29.204-197.149C379.837,252.067,354.238,257.585,328.113,261.143z"/>
		<path d="M270.738,246.999v-25.082c-7.583,0.268-15.357,0.411-23.313,0.411c-18.867,0-36.815-0.784-53.187-2.18v25.025
			c17.318,1.492,35.267,2.257,53.187,2.257C255.209,247.43,263.002,247.276,270.738,246.999z"/>
		<path d="M405.693,157.571c-0.707-3.605-1.529-7.468-2.505-11.609C390.527,92.661,353.234,0,246.832,0
			C144.284,0,107.057,89.132,93.794,145.054c-0.957,4.025-1.769,7.832-2.486,11.465c-18.513,8.759-29.749,19.756-29.749,32.943
			c0,13.292,11.427,24.355,30.189,33.144c12.259,5.737,27.703,10.48,45.116,14.248v-25.857c-7.401-2.018-13.598-4.227-18.207-6.598
			c-6.283-3.242-9.84-6.761-9.84-10.461c0-15.683,62.061-28.391,138.608-28.391c76.558,0,138.608,12.708,138.608,28.391
			c0,3.701-3.557,7.22-9.84,10.461c-9.858,5.087-26.718,9.448-48.09,12.594v25.102c29.051-4.045,54.927-10.356,73.718-18.915
			c19.526-8.884,31.479-20.139,31.479-33.717C433.301,176.792,422.906,166.148,405.693,157.571z M247.425,131.484
			c-54.621,0-109.625,6.961-145.474,20.531c0.774-3.519,1.635-7.182,2.62-10.987C118.379,87.669,154.372,9.562,246.822,9.562
			c58.389,0,101.841,28.965,129.151,86.091c7.659,16.027,12.909,32.149,16.495,46.12c1.004,3.902,1.846,7.583,2.602,11.102
			C359.307,138.752,303.184,131.484,247.425,131.484z"/>
	</g>
</g>
<g>
</g>
<g>
</g>
<g>
</g>
<g>
</g>
<g>
</g>
<g>
</g>
<g>
</g>
<g>
</g>
<g>
</g>
<g>
</g>
<g>
</g>
<g>
</g>
<g>
</g>
<g>
</g>
<g>
</g>
</svg>
