<?xml version="1.0" encoding="iso-8859-1"?>
<!-- Generator: Adobe Illustrator 16.0.0, SVG Export Plug-In . SVG Version: 6.00 Build 0)  -->
<!DOCTYPE svg PUBLIC "-//W3C//DTD SVG 1.1//EN" "http://www.w3.org/Graphics/SVG/1.1/DTD/svg11.dtd">
<svg version="1.1" id="Capa_1" xmlns="http://www.w3.org/2000/svg" xmlns:xlink="http://www.w3.org/1999/xlink" x="0px" y="0px"
	 width="455.815px" height="455.815px" viewBox="0 0 455.815 455.815" style="enable-background:new 0 0 455.815 455.815;"
	 xml:space="preserve">
<g>
	<g id="iconos_63_">
		<path d="M49.792,28.688H17.413v9.562v19.125c0,0,28.707,0,28.735,0h2.343C46.693,43.031,49.495,30.208,49.792,28.688z"/>
		<path d="M432.674,156.644c6.417-7.115,5.518-17.404,5.489-17.404l-0.086-84.647c0.086-0.421,1.941-10.557-4.256-18.083
			c-4.197-5.087-10.786-7.822-19.564-7.822h-21.688c3.155,14.344-0.029,28.171-0.029,28.688h16.936v76.5H232.569
			c-7.573,0-13.56,2.286-17.805,6.809c-6.656,7.086-6.12,16.973-6.101,17.098v119.531h9.562h9.562h4.781h4.781v-114.75
			c35.19,0,157.169,0,176.906,0C415.586,162.562,429.136,160.573,432.674,156.644z"/>
		<path d="M199.148,444.866c0.354,1.464,2.744,10.949,23.858,10.949c22.31,0,23.609-9.802,23.878-11.025
			c0.019-0.086,0.028-0.134,0.028-0.134V306h19.125v-19.125h-86.062V306h19.125L199.148,444.866z"/>
		<path d="M376.007,49.008c0-14.937-5.402-41.836-7.258-49.008H76.184c-2.706,6.521-10.958,17.136-10.958,52.594
			c0,19.125,7.153,43.414,10.958,52.594h292.565C371.417,94.851,376.007,68.133,376.007,49.008z"/>
	</g>
</g>
<g>
</g>
<g>
</g>
<g>
</g>
<g>
</g>
<g>
</g>
<g>
</g>
<g>
</g>
<g>
</g>
<g>
</g>
<g>
</g>
<g>
</g>
<g>
</g>
<g>
</g>
<g>
</g>
<g>
</g>
</svg>
