<?xml version="1.0" encoding="iso-8859-1"?>
<!-- Generator: Adobe Illustrator 16.0.0, SVG Export Plug-In . SVG Version: 6.00 Build 0)  -->
<!DOCTYPE svg PUBLIC "-//W3C//DTD SVG 1.1//EN" "http://www.w3.org/Graphics/SVG/1.1/DTD/svg11.dtd">
<svg version="1.1" id="Capa_1" xmlns="http://www.w3.org/2000/svg" xmlns:xlink="http://www.w3.org/1999/xlink" x="0px" y="0px"
	 width="516.375px" height="516.375px" viewBox="0 0 516.375 516.375" style="enable-background:new 0 0 516.375 516.375;"
	 xml:space="preserve">
<g>
	<g id="iconos_11_">
		<rect x="105.188" y="172.125" width="306" height="19.125"/>
		<rect x="105.188" y="133.875" width="306" height="28.688"/>
		<path d="M411.188,200.812h-306v18.981l104.336,73.822l-8.711,201.358c0,13.282,10.892,21.4,21.64,21.4h77.513
			c10.748,0,15.587-8.118,15.587-21.4l-8.606-199.034l104.241-76.146V200.812z M258.188,491.273c-9.906,0-17.93-8.023-17.93-17.93
			s8.023-17.93,17.93-17.93s17.93,8.023,17.93,17.93S268.094,491.273,258.188,491.273z"/>
		<polygon points="411.188,0 280.583,0 267.233,66.134 255.94,0 168.635,0 157.332,61.124 143.982,0 105.188,0 105.188,114.75 
			411.188,114.75 		"/>
	</g>
</g>
<g>
</g>
<g>
</g>
<g>
</g>
<g>
</g>
<g>
</g>
<g>
</g>
<g>
</g>
<g>
</g>
<g>
</g>
<g>
</g>
<g>
</g>
<g>
</g>
<g>
</g>
<g>
</g>
<g>
</g>
</svg>
