<?xml version="1.0" encoding="iso-8859-1"?>
<!-- Generator: Adobe Illustrator 16.0.0, SVG Export Plug-In . SVG Version: 6.00 Build 0)  -->
<!DOCTYPE svg PUBLIC "-//W3C//DTD SVG 1.1//EN" "http://www.w3.org/Graphics/SVG/1.1/DTD/svg11.dtd">
<svg version="1.1" id="Capa_1" xmlns="http://www.w3.org/2000/svg" xmlns:xlink="http://www.w3.org/1999/xlink" x="0px" y="0px"
	 width="556.806px" height="556.806px" viewBox="0 0 556.806 556.806" style="enable-background:new 0 0 556.806 556.806;"
	 xml:space="preserve">
<g>
	<g id="iconos_19_">
		<path d="M276.257,406.13c11.359-2.705,161.384-18.752,161.384-18.752l2.162-5.21c-11.982-5.985-47.479-13.664-83.354-20.074
			l4.284-17.45l-7.324-24.978l-43.24-8.368l-16.124,17.128l-3.288,23.407c-5.843-0.755-10.967-1.347-15.014-1.73
			c-9.936-0.946-25.896-1.958-43.509-2.925l49.857-156.615c30.294-52.469,85.061-61.163,85.061-61.163
			c-52.47-3.786-82.494,31.808-90.111,37.431c-0.4,0.065-4.333,4.5-11.974,2.312c-4.419-1.04-7.201-4.064-3.244-10.396
			c12.203-19.49,52.546-36.328,52.546-36.328c-40.576-0.547-64.02,34.023-67.54,38.344c-3.517,4.333-10.455,8.568-16.438,6.577
			c-3.085-1.027-4.876-4.627-2.688-8.662c3.884-7.173,18.923-22.709,18.923-22.709c-37.866,14.603-58.524,54.839-58.524,54.839
			l-54.121,151.96h-19.977L0,360.5v18.76c0,0,238.203,25.61,243.613,26.688C249.015,407.027,264.898,408.835,276.257,406.13z"/>
		<path d="M547.52,417.737c5.814-10.682,11.2-24.729,8.625-27.156c-2.569-2.44-28.095-13.35-28.095-13.35s5.173-35.228,5.173-60.111
			c0-24.88-18.389-74.378-42.19-106.832s-51.926-56.267-90.874-63.84c-38.948-7.573-60.041,4.859-94.126,43.26
			c-34.08,38.401-54.46,149.336-54.46,149.336l22.367,1.701l5.516-25.64l22.061-21.354l64.252,9.563l11.942,31.118l-1.779,11.017
			c25.961,3.243,85.864,20.024,85.864,20.024c0.163,4.008-4.007,22.779-4.007,22.779S537.544,388.239,547.52,417.737z"/>
		<path d="M490.918,406.742c-62.844-6.77-155.305,3.067-155.305,3.067c44.435,19.747,157.933,25.419,174.677,24.488
			c16.744-0.926,28.058-2.104,26.047-9.037C536.328,425.273,540.873,412.123,490.918,406.742z"/>
		<path d="M112.041,324.514l10.653,2.085l43.815-127.268h-1.624c-22.416,18.788-39.686,57.948-50.164,88.222l-0.592,0.122
			l-15.635,3.395l-2.868,31.013v4.247l16.418-2.199"/>
	</g>
</g>
<g>
</g>
<g>
</g>
<g>
</g>
<g>
</g>
<g>
</g>
<g>
</g>
<g>
</g>
<g>
</g>
<g>
</g>
<g>
</g>
<g>
</g>
<g>
</g>
<g>
</g>
<g>
</g>
<g>
</g>
</svg>
