<?xml version="1.0" encoding="iso-8859-1"?>
<!-- Generator: Adobe Illustrator 16.0.0, SVG Export Plug-In . SVG Version: 6.00 Build 0)  -->
<!DOCTYPE svg PUBLIC "-//W3C//DTD SVG 1.1//EN" "http://www.w3.org/Graphics/SVG/1.1/DTD/svg11.dtd">
<svg version="1.1" id="Capa_1" xmlns="http://www.w3.org/2000/svg" xmlns:xlink="http://www.w3.org/1999/xlink" x="0px" y="0px"
	 width="536.712px" height="536.712px" viewBox="0 0 536.712 536.712" style="enable-background:new 0 0 536.712 536.712;"
	 xml:space="preserve">
<g>
	<g id="iconos_9_">
		<polygon points="210.184,351.429 237.876,351.429 237.876,74.116 213.97,74.116 194.845,91.233 213.97,108.379 194.845,128.613 
			213.97,148.856 194.835,169.091 213.951,189.335 194.816,209.579 213.913,229.784 194.73,250.019 213.731,270.263 
			194.376,290.506 213.023,310.721 192.952,330.927 		"/>
		<path d="M362.188,493.068v-29.558v-16.457v-84.867l-9.562,1.874V75.713c0-34.454-24.155-48.558-37.093-51.226L191.623,0.274
			c-7.812-1.54-15.319,3.558-16.83,11.332c-1.521,7.774,3.558,15.31,11.332,16.83l23.065,4.495v22.061h28.688V38.534l71.728,14.009
			c2.391,0.603,14.334,4.542,14.334,23.17v293.98l-86.062,16.887v-16.026h-28.688v21.659l-19.125,3.748v79.78v30.485v30.485
			l47.812-11.963v-30.38l95.625-23.725v29.605L362.188,493.068z M314.376,443.994l-76.5,16.007v-38.46l76.5-16.008V443.994z"/>
	</g>
</g>
<g>
</g>
<g>
</g>
<g>
</g>
<g>
</g>
<g>
</g>
<g>
</g>
<g>
</g>
<g>
</g>
<g>
</g>
<g>
</g>
<g>
</g>
<g>
</g>
<g>
</g>
<g>
</g>
<g>
</g>
</svg>
