<?xml version="1.0" encoding="iso-8859-1"?>
<!-- Generator: Adobe Illustrator 16.0.0, SVG Export Plug-In . SVG Version: 6.00 Build 0)  -->
<!DOCTYPE svg PUBLIC "-//W3C//DTD SVG 1.1//EN" "http://www.w3.org/Graphics/SVG/1.1/DTD/svg11.dtd">
<svg version="1.1" id="Capa_1" xmlns="http://www.w3.org/2000/svg" xmlns:xlink="http://www.w3.org/1999/xlink" x="0px" y="0px"
	 width="544.996px" height="544.996px" viewBox="0 0 544.996 544.996" style="enable-background:new 0 0 544.996 544.996;"
	 xml:space="preserve">
<g>
	<g id="iconos_33_">
		<path d="M56.467,405.407l22.013,20.568l0.125-29.336l22.797,20.951l0.402-30.143l14.678,13.254v-20.865v-3.041l101.602-47.162
			h49.782l0.631-8.205l10.25,8.205h21.248l1.922-21.439l27.426,21.439h4.342l3.643-35.467l32.943,25.111l4.656-40l35.756,28.354
			l79.627-35.411l-18.457-41.501c0,0-41.76,23.505-84.809,23.505c-29.922,0-60.465-11.36-78.031-49.859
			c-18.914-33.402-17.662-54.43-17.662-54.43L0,306.694l56.601,127.277L56.467,405.407z"/>
		<path d="M503.553,152.04l-42.01-94.468l20.924-23.562l-8.664-19.46L368.031,62.602c0,0-82.035,32.302-45.268,114.989
			c32.693,73.526,87.889,56.792,115.744,44.408l106.488-47.354l-11.084-24.919L503.553,152.04z M352.855,164.212
			c-25.846-58.121,65.246-86.636,65.246-86.636l42.42,95.386C460.521,172.962,379.469,224.045,352.855,164.212z"/>
		<polygon points="441.605,339.196 342.318,339.196 337.518,339.196 333.818,339.196 326.053,339.196 308.734,339.196 
			303.936,339.196 299.135,339.196 290.691,339.196 283.041,339.196 271.919,339.196 267.119,339.196 243.328,339.196 
			236.567,339.196 219.144,339.196 179.555,357.776 178.608,358.216 154.1,369.72 151.642,370.868 129.859,381.081 126.043,382.878 
			126.043,415.782 126.043,422.218 126.043,530.446 441.605,530.446 		"/>
	</g>
</g>
<g>
</g>
<g>
</g>
<g>
</g>
<g>
</g>
<g>
</g>
<g>
</g>
<g>
</g>
<g>
</g>
<g>
</g>
<g>
</g>
<g>
</g>
<g>
</g>
<g>
</g>
<g>
</g>
<g>
</g>
</svg>
