<?xml version="1.0" encoding="iso-8859-1"?>
<!-- Generator: Adobe Illustrator 16.0.0, SVG Export Plug-In . SVG Version: 6.00 Build 0)  -->
<!DOCTYPE svg PUBLIC "-//W3C//DTD SVG 1.1//EN" "http://www.w3.org/Graphics/SVG/1.1/DTD/svg11.dtd">
<svg version="1.1" id="Capa_1" xmlns="http://www.w3.org/2000/svg" xmlns:xlink="http://www.w3.org/1999/xlink" x="0px" y="0px"
	 width="440.125px" height="440.124px" viewBox="0 0 440.125 440.124" style="enable-background:new 0 0 440.125 440.124;"
	 xml:space="preserve">
<g>
	<g id="iconos_27_">
		<polygon points="320.468,38.25 320.468,0 119.656,0 119.656,38.25 177.031,38.25 177.031,103.275 148.343,114.75 148.343,124.312 
			177.031,112.837 177.031,141.525 148.343,153 148.343,162.562 177.031,151.087 177.031,179.775 148.343,191.25 148.343,200.812 
			177.031,189.337 177.031,218.025 148.343,229.5 148.343,239.062 177.031,227.588 177.031,256.275 148.343,267.75 148.343,277.312 
			177.031,265.838 177.031,294.525 148.343,306 148.343,315.562 177.031,304.088 177.031,332.775 148.343,344.25 148.343,353.812 
			177.031,342.338 177.031,396.844 221.257,440.124 263.093,396.844 263.093,307.912 291.781,296.438 291.781,286.875 
			263.093,298.35 263.093,269.662 291.781,258.188 291.781,248.625 263.093,260.1 263.093,231.412 291.781,219.938 291.781,210.375 
			263.093,221.85 263.093,193.163 291.781,181.688 291.781,172.125 263.093,183.6 263.093,154.913 291.781,143.438 291.781,133.875 
			263.093,145.35 263.093,116.663 291.781,105.188 291.781,95.625 263.093,107.1 263.093,78.413 291.781,66.938 291.781,57.375 
			263.093,68.85 263.093,38.25 		"/>
	</g>
</g>
<g>
</g>
<g>
</g>
<g>
</g>
<g>
</g>
<g>
</g>
<g>
</g>
<g>
</g>
<g>
</g>
<g>
</g>
<g>
</g>
<g>
</g>
<g>
</g>
<g>
</g>
<g>
</g>
<g>
</g>
</svg>
