<?xml version="1.0" encoding="iso-8859-1"?>
<!-- Generator: Adobe Illustrator 16.0.0, SVG Export Plug-In . SVG Version: 6.00 Build 0)  -->
<!DOCTYPE svg PUBLIC "-//W3C//DTD SVG 1.1//EN" "http://www.w3.org/Graphics/SVG/1.1/DTD/svg11.dtd">
<svg version="1.1" id="Capa_1" xmlns="http://www.w3.org/2000/svg" xmlns:xlink="http://www.w3.org/1999/xlink" x="0px" y="0px"
	 width="573.75px" height="573.75px" viewBox="0 0 573.75 573.75" style="enable-background:new 0 0 573.75 573.75;"
	 xml:space="preserve">
<g>
	<g id="iconos_28_">
		<path d="M419.153,545.062L415.969,0h-38.25l-0.191,66.938H196.615L196.031,0h-38.25L153,545.062h47.812l-1.339-153h177.098
			l-0.449,153H419.153z M198.125,239.062h178.895l-0.172,57.375H198.632L198.125,239.062z M197.456,162.562H377.24l-0.172,57.375
			H197.963L197.456,162.562z M377.47,86.062l-0.172,57.375H197.293l-0.507-57.375H377.47z M199.302,372.938l-0.507-57.375h177.996
			l-0.172,57.375H199.302z"/>
		<path d="M207.984,554.625h-62.156c-3.959,0-7.172,3.213-7.172,7.172v4.781c0,3.959,3.213,7.172,7.172,7.172h62.156
			c3.959,0,7.172-3.213,7.172-7.172v-4.781C215.156,557.838,211.943,554.625,207.984,554.625z"/>
		<path d="M427.922,554.625h-62.156c-3.959,0-7.172,3.213-7.172,7.172v4.781c0,3.959,3.213,7.172,7.172,7.172h62.156
			c3.959,0,7.172-3.213,7.172-7.172v-4.781C435.094,557.838,431.881,554.625,427.922,554.625z"/>
	</g>
</g>
<g>
</g>
<g>
</g>
<g>
</g>
<g>
</g>
<g>
</g>
<g>
</g>
<g>
</g>
<g>
</g>
<g>
</g>
<g>
</g>
<g>
</g>
<g>
</g>
<g>
</g>
<g>
</g>
<g>
</g>
</svg>
