<?xml version="1.0" encoding="iso-8859-1"?>
<!-- Generator: Adobe Illustrator 16.0.0, SVG Export Plug-In . SVG Version: 6.00 Build 0)  -->
<!DOCTYPE svg PUBLIC "-//W3C//DTD SVG 1.1//EN" "http://www.w3.org/Graphics/SVG/1.1/DTD/svg11.dtd">
<svg version="1.1" id="Capa_1" xmlns="http://www.w3.org/2000/svg" xmlns:xlink="http://www.w3.org/1999/xlink" x="0px" y="0px"
	 width="479.79px" height="479.79px" viewBox="0 0 479.79 479.79" style="enable-background:new 0 0 479.79 479.79;"
	 xml:space="preserve">
<g>
	<g id="iconos_62_">
		<path d="M29.902,354.645h272.904L258.188,182.52H141.047l-13.942,56.581c0,0-72.312,0.794-99.402,0.794
			C0.612,239.895,0,264.757,0,264.757s0,38.881,0,62.787C0,357.045,29.902,354.645,29.902,354.645z M161.769,211.208h74.903
			l15.94,57.375H153L161.769,211.208z"/>
		<path d="M277.312,192.083c0,0,23.906-58.972,104.394-68.534c34.368-4.399,40.287-25.542,29.09-38.25
			c-14.746-16.734-50.605-10.05-76.3-8.769c-57.337,2.878-120.937,58.178-143.246,86.866h76.5L277.312,192.083z"/>
		<path d="M433.497,102.835c0,43.031-47.812,41.435-47.812,41.435l10.04,134.803l34.205-29.615l21.104-189.653
			c0,0-4.781-39.847-37.456-39.847c-37.456,0-37.456,33.469-37.456,33.469S433.497,50.242,433.497,102.835z"/>
		<path d="M451.034,259.02l-110.446,98.369c18.006,19.967,54.468,49.85,54.468,49.85s81.481-11.159,84.666-82.878
			C481.414,286.149,451.034,259.02,451.034,259.02z"/>
		<path d="M315.562,426.364v-19.125c0-18.456-15.013-33.469-33.469-33.469H43.031c-18.456,0-33.469,15.013-33.469,33.469v19.125
			c0,18.456,15.013,33.469,33.469,33.469h239.062C300.55,459.833,315.562,444.82,315.562,426.364z M286.875,426.364
			c0,2.64-2.142,4.781-4.781,4.781H43.031c-2.639,0-4.781-2.142-4.781-4.781v-19.125c0-2.64,2.142-4.781,4.781-4.781h239.062
			c2.64,0,4.781,2.142,4.781,4.781V426.364z"/>
		<polygon points="334.688,288.903 322.142,297.863 333.091,340.301 365.766,310.82 		"/>
	</g>
</g>
<g>
</g>
<g>
</g>
<g>
</g>
<g>
</g>
<g>
</g>
<g>
</g>
<g>
</g>
<g>
</g>
<g>
</g>
<g>
</g>
<g>
</g>
<g>
</g>
<g>
</g>
<g>
</g>
<g>
</g>
</svg>
