<?xml version="1.0" encoding="iso-8859-1"?>
<!-- Generator: Adobe Illustrator 16.0.0, SVG Export Plug-In . SVG Version: 6.00 Build 0)  -->
<!DOCTYPE svg PUBLIC "-//W3C//DTD SVG 1.1//EN" "http://www.w3.org/Graphics/SVG/1.1/DTD/svg11.dtd">
<svg version="1.1" id="Capa_1" xmlns="http://www.w3.org/2000/svg" xmlns:xlink="http://www.w3.org/1999/xlink" x="0px" y="0px"
	 width="557.369px" height="557.369px" viewBox="0 0 557.369 557.369" style="enable-background:new 0 0 557.369 557.369;"
	 xml:space="preserve">
<g>
	<g id="iconos_29_">
		<path d="M405.077,376.701c0-4.647-0.622-9.151-1.683-13.474c-4.17-17.06-16.037-31.107-31.72-38.25
			c-7.152-3.261-15.08-5.116-23.438-5.116s-16.284,1.864-23.438,5.116c-15.692,7.143-27.55,21.19-31.719,38.25
			c-1.062,4.331-1.683,8.826-1.683,13.474c0,31.336,25.503,56.839,56.839,56.839C379.574,433.54,405.077,408.046,405.077,376.701z
			 M325.899,376.709c0-5.087,1.77-9.725,4.628-13.474c4.084-5.345,10.452-8.854,17.691-8.854c7.238,0,13.617,3.51,17.69,8.854
			c2.868,3.759,4.628,8.387,4.628,13.474c0,12.326-9.992,22.329-22.328,22.329C335.902,399.029,325.899,389.036,325.899,376.709z"/>
		<path d="M545.062,341.492c-10.423-13.148-26.488-21.631-44.532-21.631c-26.699,0-49.085,18.522-55.157,43.366
			c-1.062,4.331-1.683,8.826-1.683,13.474c0,31.336,25.503,56.839,56.84,56.839c31.336,0,56.839-25.503,56.839-56.839
			C557.369,363.409,552.741,351.188,545.062,341.492z M500.53,399.029c-12.336,0-22.329-9.993-22.329-22.328
			c0-5.088,1.77-9.726,4.629-13.474c4.083-5.346,10.451-8.855,17.69-8.855c7.238,0,13.617,3.51,17.69,8.855
			c2.869,3.758,4.628,8.386,4.628,13.474C522.858,389.036,512.856,399.029,500.53,399.029z"/>
		<path d="M259.622,382.017c9.753,0,17.69-7.937,17.69-17.7V353.33v-6.216v-4.781c0-9.754-7.937-17.69-17.69-17.69h-4.781h-26.775
			c-9.753,0-17.69,7.937-17.69,17.7v10.987v10.987c0,9.764,7.937,17.7,17.69,17.7H259.622z"/>
		<path d="M181.688,362.892v-28.688v-28.688h28.688v9.562v6.693c4.771-4.111,10.911-6.693,17.69-6.693h31.557
			c14.793,0,26.813,11.867,27.186,26.574c4.304-10.461,11.198-19.584,19.881-26.574c11.389-9.161,25.828-14.679,41.539-14.679
			c15.712,0,30.16,5.518,41.55,14.679c11.79,9.486,20.301,22.893,23.485,38.25h22.242c6.244-30.18,33.029-52.929,65.025-52.929
			c17.146,0,32.741,6.589,44.532,17.289v-59.985H401.625V123.83h-85.642L210.375,257.332v0.373v19.125h-28.688V142.955h-38.25
			v191.25H23.361L0,354.066v8.826h143.438H181.688z M277.312,231.35l59.68-78.833h26.383v95.625h-86.062V231.35z"/>
		<rect x="47.812" y="257.705" width="57.375" height="38.25"/>
		<path d="M38.25,324.642h76.5c10.566,0,19.125-10.566,19.125-23.609v-47.22c0-13.034-8.559-24.796-19.125-24.796h-76.5
			c-10.566,0-19.125,11.762-19.125,24.805v47.22C19.125,314.076,27.684,324.642,38.25,324.642z M38.25,248.142h76.5v57.375h-76.5
			V248.142z"/>
		<rect x="47.812" y="152.517" width="57.375" height="38.25"/>
		<path d="M38.25,219.455h76.5c10.566,0,19.125-10.566,19.125-23.61v-47.22c0-13.034-8.559-24.795-19.125-24.795h-76.5
			c-10.566,0-19.125,11.762-19.125,24.805v47.22C19.125,208.888,27.684,219.455,38.25,219.455z M38.25,142.955h76.5v57.375h-76.5
			V142.955z"/>
	</g>
</g>
<g>
</g>
<g>
</g>
<g>
</g>
<g>
</g>
<g>
</g>
<g>
</g>
<g>
</g>
<g>
</g>
<g>
</g>
<g>
</g>
<g>
</g>
<g>
</g>
<g>
</g>
<g>
</g>
<g>
</g>
</svg>
