<?xml version="1.0" encoding="iso-8859-1"?>
<!-- Generator: Adobe Illustrator 16.0.0, SVG Export Plug-In . SVG Version: 6.00 Build 0)  -->
<!DOCTYPE svg PUBLIC "-//W3C//DTD SVG 1.1//EN" "http://www.w3.org/Graphics/SVG/1.1/DTD/svg11.dtd">
<svg version="1.1" id="Capa_1" xmlns="http://www.w3.org/2000/svg" xmlns:xlink="http://www.w3.org/1999/xlink" x="0px" y="0px"
	 width="98px" height="98px" viewBox="0 0 98 98" style="enable-background:new 0 0 98 98;" xml:space="preserve">
<g>
	<g id="iconos_15_">
		<path d="M21.545,56.49c-6.767,0-12.25,5.484-12.25,12.25c0,6.769,5.483,12.25,12.25,12.25s12.25-5.481,12.25-12.25
			C33.795,61.979,28.312,56.49,21.545,56.49z M21.545,72.79c-2.234,0-4.045-1.812-4.045-4.048c0-2.233,1.811-4.045,4.045-4.045
			c2.236,0,4.049,1.812,4.049,4.045C25.594,70.98,23.783,72.79,21.545,72.79z"/>
		<path d="M63,27.51v24.991c0,0,0.67-0.164,4.045-0.164c7.521,0,11.34,3.694,13.17,6.549c0.957-0.995,2.297-1.627,3.785-1.627h12.25
			V38.885L88.812,27.51H63z M91,46.759H77v-14h10.5l3.5,5.579V46.759z"/>
		<path d="M5.14,45.009c0,0,28.875,5.356,32.704,19.25h13.232c0,0,1.643-8.75,8.424-11.153V24.01h30.789l5.086-7H56l-4.812,10.5H0v7
			h5.25L5.14,45.009z"/>
		<path d="M84,60.759c-0.814,0-1.475,0.572-1.664,1.328c-0.035,0.142-0.086,0.272-0.086,0.422v3.5c0,0.968,0.783,1.75,1.75,1.75
			h12.25c0.965,0,1.75-0.782,1.75-1.75v-3.5c0-0.965-0.785-1.75-1.75-1.75H84z"/>
		<path d="M67.045,56.49c-6.768,0-12.25,5.484-12.25,12.25c0,6.769,5.482,12.25,12.25,12.25s12.25-5.481,12.25-12.25
			c0-0.166-0.02-0.325-0.023-0.489c-0.043-1.088-0.213-2.142-0.521-3.138C77.203,60.122,72.549,56.49,67.045,56.49z M67.045,72.79
			c-2.234,0-4.045-1.812-4.045-4.048c0-2.233,1.811-4.045,4.045-4.045c2.236,0,4.049,1.812,4.049,4.045
			C71.094,70.98,69.283,72.79,67.045,72.79z"/>
	</g>
</g>
<g>
</g>
<g>
</g>
<g>
</g>
<g>
</g>
<g>
</g>
<g>
</g>
<g>
</g>
<g>
</g>
<g>
</g>
<g>
</g>
<g>
</g>
<g>
</g>
<g>
</g>
<g>
</g>
<g>
</g>
</svg>
