<?xml version="1.0" encoding="iso-8859-1"?>
<!-- Generator: Adobe Illustrator 16.0.0, SVG Export Plug-In . SVG Version: 6.00 Build 0)  -->
<!DOCTYPE svg PUBLIC "-//W3C//DTD SVG 1.1//EN" "http://www.w3.org/Graphics/SVG/1.1/DTD/svg11.dtd">
<svg version="1.1" id="Capa_1" xmlns="http://www.w3.org/2000/svg" xmlns:xlink="http://www.w3.org/1999/xlink" x="0px" y="0px"
	 width="440.124px" height="440.124px" viewBox="0 0 440.124 440.124" style="enable-background:new 0 0 440.124 440.124;"
	 xml:space="preserve">
<g>
	<g id="iconos_37_">
		<polygon points="188.133,349.691 184.996,351.68 176.916,356.786 165.967,363.71 155.486,356.117 140.942,345.599 102.07,370.174 
			102.07,396.844 146.297,440.124 188.133,396.844 		"/>
		<polygon points="245.508,38.25 245.508,0 44.695,0 44.695,38.25 102.07,38.25 102.07,103.275 73.383,114.75 73.383,124.312 
			102.07,112.837 102.07,141.525 73.383,153 73.383,162.562 102.07,151.087 102.07,179.775 73.383,191.25 73.383,200.812 
			101.267,189.663 104.059,187.894 112.656,182.453 128.3,172.565 136.38,167.449 136.753,167.219 160.631,152.12 168.711,147.004 
			169.084,146.775 169.084,146.775 188.133,134.726 188.133,116.663 216.82,105.188 216.82,95.625 188.133,107.1 188.133,78.413 
			216.82,66.938 216.82,57.375 188.133,68.85 188.133,38.25 		"/>
		<polygon points="292.919,57.155 323.586,105.646 268.62,140.396 243.596,122.285 235.515,127.401 260.54,145.513 236.299,160.841 
			213.875,144.614 211.265,142.73 203.185,147.836 204.121,148.515 228.209,165.957 216.82,173.158 203.969,181.286 
			200.392,178.694 188.133,169.83 178.934,163.174 170.854,168.281 188.133,180.789 190.639,182.596 195.888,186.392 
			171.638,201.73 146.603,183.619 138.522,188.726 163.557,206.837 139.307,222.175 114.282,204.054 106.192,209.17 
			131.227,227.281 106.976,242.62 102.07,239.062 91.857,231.671 83.347,225.513 81.951,224.499 75.19,228.773 73.871,229.615 
			82.104,235.572 98.896,247.727 74.655,263.055 49.62,244.943 41.54,250.06 66.574,268.171 20.502,297.298 7.555,357.819 
			66.498,370.04 102.07,347.549 141.659,322.515 166.694,340.626 174.774,335.51 149.749,317.398 173.99,302.07 188.133,312.302 
			199.024,320.182 207.104,315.065 193.985,305.569 182.07,296.954 188.133,293.129 206.32,281.625 214.735,287.707 216.82,289.218 
			231.355,299.736 239.436,294.63 214.401,276.509 238.651,261.181 263.677,279.292 271.757,274.186 246.731,256.074 
			270.973,240.736 296.008,258.848 304.088,253.741 279.062,235.63 303.304,220.291 328.338,238.412 336.419,233.296 
			311.384,215.185 335.635,199.847 360.669,217.968 368.749,212.852 343.715,194.74 369.581,178.389 400.248,226.88 
			432.569,206.435 325.25,36.71 		"/>
	</g>
</g>
<g>
</g>
<g>
</g>
<g>
</g>
<g>
</g>
<g>
</g>
<g>
</g>
<g>
</g>
<g>
</g>
<g>
</g>
<g>
</g>
<g>
</g>
<g>
</g>
<g>
</g>
<g>
</g>
<g>
</g>
</svg>
