<?xml version="1.0" encoding="iso-8859-1"?>
<!-- Generator: Adobe Illustrator 16.0.0, SVG Export Plug-In . SVG Version: 6.00 Build 0)  -->
<!DOCTYPE svg PUBLIC "-//W3C//DTD SVG 1.1//EN" "http://www.w3.org/Graphics/SVG/1.1/DTD/svg11.dtd">
<svg version="1.1" id="Capa_1" xmlns="http://www.w3.org/2000/svg" xmlns:xlink="http://www.w3.org/1999/xlink" x="0px" y="0px"
	 width="558.451px" height="558.451px" viewBox="0 0 558.451 558.451" style="enable-background:new 0 0 558.451 558.451;"
	 xml:space="preserve">
<g>
	<path d="M443.395,409.735H248.472v41.615h-28.764v-41.615h-38.25V359.55l-58.14-64.565h-30.6
		c-3.366,5.813-9.486,9.485-16.524,9.485H18.972C8.262,304.47,0,295.903,0,285.499c0-10.404,8.568-18.972,18.972-18.972h57.222
		c7.038,0,13.158,3.978,16.524,9.486h39.168l49.572,55.08V190.026h41.31v99.756l33.966,33.966h181.152l36.719-33.66V190.026h41.617
		v134.028V336.6c-1.836-0.306-3.979-0.306-6.121-0.306c-11.627,0-22.643,3.061-32.129,8.262
		c-20.809,11.322-35.191,33.66-35.191,59.059C442.781,405.451,443.088,407.592,443.395,409.735z M558.451,403.308
		c0,26.622-21.727,48.349-48.35,48.349c-24.479,0-44.369-18.054-47.43-41.616c-0.307-2.142-0.611-4.284-0.611-6.426
		c0-14.076,6.119-26.622,15.912-35.496c8.568-7.65,19.889-12.546,32.129-12.546c2.143,0,3.979,0.306,6.121,0.611
		C540.09,358.632,558.451,378.829,558.451,403.308z M528.463,403.308c0-7.956-5.203-14.688-12.24-17.136
		c-1.836-0.612-3.979-1.224-6.121-1.224c-10.098,0-18.359,8.262-18.359,18.359c0,2.448,0.611,4.591,1.225,6.732
		c2.754,6.732,9.18,11.628,17.135,11.628C520.506,421.668,528.463,413.407,528.463,403.308z M459,231.031v-62.118l-57.527-62.118
		H348.84h-52.631l-57.223,62.118v62.118h110.16H459z M348.84,307.531h78.643L459,278.767v-28.764H348.84H238.68v28.764
		l31.518,28.764H348.84z"/>
</g>
<g>
</g>
<g>
</g>
<g>
</g>
<g>
</g>
<g>
</g>
<g>
</g>
<g>
</g>
<g>
</g>
<g>
</g>
<g>
</g>
<g>
</g>
<g>
</g>
<g>
</g>
<g>
</g>
<g>
</g>
</svg>
