<?xml version="1.0" encoding="iso-8859-1"?>
<!-- Generator: Adobe Illustrator 16.0.0, SVG Export Plug-In . SVG Version: 6.00 Build 0)  -->
<!DOCTYPE svg PUBLIC "-//W3C//DTD SVG 1.1//EN" "http://www.w3.org/Graphics/SVG/1.1/DTD/svg11.dtd">
<svg version="1.1" id="Capa_1" xmlns="http://www.w3.org/2000/svg" xmlns:xlink="http://www.w3.org/1999/xlink" x="0px" y="0px"
	 width="695.113px" height="695.112px" viewBox="0 0 695.113 695.112" style="enable-background:new 0 0 695.113 695.112;"
	 xml:space="preserve">
<g>
	<path d="M221.827,27.563c0,0-53.856,45.936-43.956,93.456c4.355,21.78,6.336,31.68,7.523,36.432l60.588-12.276L221.827,27.563z
		 M326.766,596.616h-49.5H199.65h-12.275v27.323c0,0-1.584,76.429,73.655,70.885c70.093-5.148,66.925-84.349,66.925-84.349
		L326.766,596.616z M186.583,225.959v73.656h0.792h12.275h64.944h41.976l-1.188-14.652c0,0,131.472-82.368,114.444-165.528
		C398.838,16.08,316.074-4.117,291.918,0.635l28.908,141.768l-145.332,29.7L186.583,225.959z M274.89,164.183l12.276,60.588
		l-72.469,15.048l-12.275-60.588L274.89,164.183z M135.102,243.383l40.788-8.316l-9.9-47.52
		C165.99,187.547,127.579,206.951,135.102,243.383z M265.386,178.835l7.524,36.432l-48.312,9.9l-7.524-36.432L265.386,178.835z
		 M386.958,365.214l-32.473-47.875H99.066v49.024h88.309v22.214h-0.792H99.066v47.49h87.12h0.792v23.746H99.066v49.023
		c4.356,0,88.309-0.383,88.309-0.383V532.2h-0.792H99.066v48.64h255.816l34.848-46.725h206.316v-168.9
		C596.046,365.214,386.958,365.214,386.958,365.214z"/>
</g>
<g>
</g>
<g>
</g>
<g>
</g>
<g>
</g>
<g>
</g>
<g>
</g>
<g>
</g>
<g>
</g>
<g>
</g>
<g>
</g>
<g>
</g>
<g>
</g>
<g>
</g>
<g>
</g>
<g>
</g>
</svg>
