<?xml version="1.0" encoding="iso-8859-1"?>
<!-- Generator: Adobe Illustrator 16.0.0, SVG Export Plug-In . SVG Version: 6.00 Build 0)  -->
<!DOCTYPE svg PUBLIC "-//W3C//DTD SVG 1.1//EN" "http://www.w3.org/Graphics/SVG/1.1/DTD/svg11.dtd">
<svg version="1.1" id="Capa_1" xmlns="http://www.w3.org/2000/svg" xmlns:xlink="http://www.w3.org/1999/xlink" x="0px" y="0px"
	 width="565.135px" height="565.135px" viewBox="0 0 565.135 565.135" style="enable-background:new 0 0 565.135 565.135;"
	 xml:space="preserve">
<g>
	<g id="iconos_48_">
		<path d="M119.247,408.807l45.364-81.166l-149.07-95.348c0,0-11.36,109.318,49.266,143.561
			C115.68,404.59,119.247,408.807,119.247,408.807z"/>
		<path d="M320.308,24.853c-85.154-29.759-197.351-36.338-219.326-0.039l212.211,128.463L152.676,399.723l80.985,49.027
			l126.12,116.375l190.657,0.01V450.787L446.38,366.99C446.38,366.99,528.923,97.767,320.308,24.853z M285.949,425.34
			l-90.729-54.926l58.962-97.395l90.729,54.927L285.949,425.34z"/>
		<path d="M190.258,530.441l36.854-60.865l-55.3-33.479C171.802,436.088,148.048,504.891,190.258,530.441z"/>
		<polygon points="240.605,310.301 252.271,317.635 246.12,327.657 233.929,320.035 228.954,328.2 241.118,335.803 234.967,345.826 
			222.031,337.842 217.058,346.008 229.975,353.973 222.183,367.637 276.53,400.752 284.605,387.635 296.772,394.861 
			301.746,386.697 289.607,379.488 295.749,369.465 307.782,376.795 312.757,368.629 300.751,361.318 306.902,351.295 
			317.46,357.727 322.434,349.562 311.904,343.149 319.773,330.266 265.532,296.988 257.274,309.488 245.578,302.135 		"/>
		<path d="M48.799,236.232l92.718,56.084l96.323-54.573l3.604-110.648l-92.718-56.084l-96.323,54.573L48.799,236.232z
			 M144.07,126.617c31.814,0.507,57.193,26.699,56.687,58.513c-0.508,31.814-26.698,57.193-58.513,56.687
			c-31.814-0.507-57.193-26.699-56.687-58.513C86.064,151.5,112.256,126.12,144.07,126.617z"/>
	</g>
</g>
<g>
</g>
<g>
</g>
<g>
</g>
<g>
</g>
<g>
</g>
<g>
</g>
<g>
</g>
<g>
</g>
<g>
</g>
<g>
</g>
<g>
</g>
<g>
</g>
<g>
</g>
<g>
</g>
<g>
</g>
</svg>
